<mxfile host="65bd71144e">
    <diagram id="QktT9s6Nc1AT6UdeHGov" name="CcsdsTmVcSend">
        <mxGraphModel dx="700" dy="602" grid="1" gridSize="10" guides="1" tooltips="1" connect="1" arrows="1" fold="1" page="1" pageScale="1" pageWidth="850" pageHeight="1100" math="0" shadow="0">
            <root>
                <mxCell id="0"/>
                <mxCell id="1" parent="0"/>
                <mxCell id="11" value="" style="rounded=0;whiteSpace=wrap;html=1;fillColor=default;" vertex="1" parent="1">
                    <mxGeometry x="120" y="450" width="440" height="520" as="geometry"/>
                </mxCell>
                <mxCell id="2" value="Packet&lt;br/&gt;Processing" style="rounded=0;whiteSpace=wrap;html=1;fillColor=#fff2cc;strokeColor=#000000;" vertex="1" parent="1">
                    <mxGeometry x="140" y="530" width="160" height="80" as="geometry"/>
                </mxCell>
                <mxCell id="3" value="" style="shape=flexArrow;endArrow=classic;html=1;entryX=0.5;entryY=0;entryDx=0;entryDy=0;" edge="1" parent="1" target="2">
                    <mxGeometry width="50" height="50" relative="1" as="geometry">
                        <mxPoint x="220" y="460" as="sourcePoint"/>
                        <mxPoint x="340" y="530" as="targetPoint"/>
                    </mxGeometry>
                </mxCell>
                <mxCell id="4" value="Virtual Channel Generation" style="rounded=0;whiteSpace=wrap;html=1;fillColor=#fff2cc;strokeColor=#000000;" vertex="1" parent="1">
                    <mxGeometry x="140" y="690" width="400" height="80" as="geometry"/>
                </mxCell>
                <mxCell id="7" value="" style="shape=flexArrow;endArrow=classic;html=1;" edge="1" parent="1">
                    <mxGeometry width="50" height="50" relative="1" as="geometry">
                        <mxPoint x="220" y="610" as="sourcePoint"/>
                        <mxPoint x="220" y="690" as="targetPoint"/>
                    </mxGeometry>
                </mxCell>
                <mxCell id="8" value="" style="shape=flexArrow;endArrow=classic;html=1;entryX=0.5;entryY=0;entryDx=0;entryDy=0;" edge="1" parent="1" target="9">
                    <mxGeometry width="50" height="50" relative="1" as="geometry">
                        <mxPoint x="380" y="770" as="sourcePoint"/>
                        <mxPoint x="360" y="850" as="targetPoint"/>
                    </mxGeometry>
                </mxCell>
                <mxCell id="9" value="frames&lt;br&gt;FIFO" style="rounded=0;whiteSpace=wrap;html=1;" vertex="1" parent="1">
                    <mxGeometry x="340" y="840" width="80" height="40" as="geometry"/>
                </mxCell>
                <mxCell id="10" value="VCP service" style="rounded=0;whiteSpace=wrap;html=1;fillColor=#dae8fc;strokeColor=#000000;" vertex="1" parent="1">
                    <mxGeometry x="140" y="400" width="160" height="60" as="geometry"/>
                </mxCell>
                <mxCell id="13" value="VC_FSH service" style="rounded=0;whiteSpace=wrap;html=1;fillColor=#dae8fc;strokeColor=#000000;" vertex="1" parent="1">
                    <mxGeometry x="380" y="400" width="160" height="60" as="geometry"/>
                </mxCell>
                <mxCell id="14" value="" style="shape=flexArrow;endArrow=classic;html=1;entryX=0.8;entryY=0;entryDx=0;entryDy=0;exitX=0.5;exitY=1;exitDx=0;exitDy=0;entryPerimeter=0;" edge="1" parent="1" source="13" target="4">
                    <mxGeometry width="50" height="50" relative="1" as="geometry">
                        <mxPoint x="230" y="469.9999999999998" as="sourcePoint"/>
                        <mxPoint x="230" y="539.9999999999998" as="targetPoint"/>
                    </mxGeometry>
                </mxCell>
                <mxCell id="19" value="request&lt;br&gt;signal" style="edgeStyle=none;html=1;exitX=0.25;exitY=0;exitDx=0;exitDy=0;" edge="1" parent="1" source="15">
                    <mxGeometry relative="1" as="geometry">
                        <mxPoint x="300" y="770" as="targetPoint"/>
                    </mxGeometry>
                </mxCell>
                <mxCell id="15" value="get_VC_frame" style="rounded=0;whiteSpace=wrap;html=1;fillColor=#dae8fc;strokeColor=#000000;" vertex="1" parent="1">
                    <mxGeometry x="260" y="950" width="160" height="50" as="geometry"/>
                </mxCell>
                <mxCell id="16" value="" style="shape=flexArrow;endArrow=classic;html=1;exitX=0.5;exitY=1;exitDx=0;exitDy=0;entryX=0.75;entryY=0;entryDx=0;entryDy=0;" edge="1" parent="1" source="9" target="15">
                    <mxGeometry width="50" height="50" relative="1" as="geometry">
                        <mxPoint x="350" y="780" as="sourcePoint"/>
                        <mxPoint x="350" y="860" as="targetPoint"/>
                    </mxGeometry>
                </mxCell>
                <mxCell id="17" value="&lt;font style=&quot;font-size: 14px;&quot;&gt;class&lt;br&gt;CcsdsTmVcSend&lt;/font&gt;" style="rounded=0;whiteSpace=wrap;html=1;fillColor=default;" vertex="1" parent="1">
                    <mxGeometry x="120" y="910" width="120" height="60" as="geometry"/>
                </mxCell>
                <mxCell id="20" value="frame&lt;br&gt;buffer" style="rounded=0;whiteSpace=wrap;html=1;" vertex="1" parent="1">
                    <mxGeometry x="150" y="710" width="80" height="40" as="geometry"/>
                </mxCell>
                <mxCell id="21" value="packets [data, size]" style="rounded=0;whiteSpace=wrap;html=1;strokeColor=#000000;fillColor=default;" vertex="1" parent="1">
                    <mxGeometry x="230" y="470" width="120" height="30" as="geometry"/>
                </mxCell>
                <mxCell id="22" value="data fields [data, size]" style="rounded=0;whiteSpace=wrap;html=1;strokeColor=#000000;fillColor=default;" vertex="1" parent="1">
                    <mxGeometry x="230" y="620" width="120" height="30" as="geometry"/>
                </mxCell>
                <mxCell id="23" value="VC frames [frame]" style="rounded=0;whiteSpace=wrap;html=1;strokeColor=#000000;fillColor=default;" vertex="1" parent="1">
                    <mxGeometry x="390" y="780" width="120" height="30" as="geometry"/>
                </mxCell>
                <mxCell id="24" value="VC frames [frame]" style="rounded=0;whiteSpace=wrap;html=1;strokeColor=#000000;fillColor=default;" vertex="1" parent="1">
                    <mxGeometry x="390" y="890" width="120" height="30" as="geometry"/>
                </mxCell>
                <mxCell id="25" value="SDLS" style="rounded=0;whiteSpace=wrap;html=1;" vertex="1" parent="1">
                    <mxGeometry x="450" y="710" width="80" height="40" as="geometry"/>
                </mxCell>
                <mxCell id="26" value="Interface" style="rounded=0;whiteSpace=wrap;html=1;fillColor=#dae8fc;strokeColor=#000000;" vertex="1" parent="1">
                    <mxGeometry x="620" y="880" width="120" height="40" as="geometry"/>
                </mxCell>
                <mxCell id="27" value="SDLP functions" style="rounded=0;whiteSpace=wrap;html=1;fillColor=#fff2cc;strokeColor=#000000;" vertex="1" parent="1">
                    <mxGeometry x="620" y="930" width="120" height="40" as="geometry"/>
                </mxCell>
            </root>
        </mxGraphModel>
    </diagram>
    <diagram id="vNPgJLFHJEqL_uVgeNZd" name="CcsdsTmMcSend">
        <mxGraphModel dx="2805" dy="2053" grid="1" gridSize="10" guides="1" tooltips="1" connect="1" arrows="1" fold="1" page="1" pageScale="1" pageWidth="850" pageHeight="1100" math="0" shadow="0">
            <root>
                <mxCell id="0"/>
                <mxCell id="1" parent="0"/>
                <mxCell id="gddAYdEbdGSGUYh4bfDe-1" value="" style="rounded=0;whiteSpace=wrap;html=1;fillColor=default;" vertex="1" parent="1">
                    <mxGeometry x="-260" y="440" width="1180" height="390" as="geometry"/>
                </mxCell>
                <mxCell id="gddAYdEbdGSGUYh4bfDe-3" value="" style="shape=flexArrow;endArrow=classic;html=1;entryX=0.5;entryY=0;entryDx=0;entryDy=0;" edge="1" parent="1">
                    <mxGeometry width="50" height="50" relative="1" as="geometry">
                        <mxPoint x="-40" y="450" as="sourcePoint"/>
                        <mxPoint x="-40" y="520" as="targetPoint"/>
                    </mxGeometry>
                </mxCell>
                <mxCell id="vtf4cM3djB3CSQXeLiiT-45" style="edgeStyle=none;html=1;entryX=0.25;entryY=1;entryDx=0;entryDy=0;fontSize=14;exitX=0.775;exitY=-0.006;exitDx=0;exitDy=0;exitPerimeter=0;" edge="1" parent="1" source="gddAYdEbdGSGUYh4bfDe-4" target="lhjE1rx71gh7iTyU4ZG2-3">
                    <mxGeometry relative="1" as="geometry"/>
                </mxCell>
                <mxCell id="vtf4cM3djB3CSQXeLiiT-46" style="edgeStyle=none;html=1;entryX=0.25;entryY=1;entryDx=0;entryDy=0;fontSize=14;exitX=0.144;exitY=0.026;exitDx=0;exitDy=0;exitPerimeter=0;" edge="1" parent="1" source="gddAYdEbdGSGUYh4bfDe-4" target="gddAYdEbdGSGUYh4bfDe-8">
                    <mxGeometry relative="1" as="geometry"/>
                </mxCell>
                <mxCell id="gddAYdEbdGSGUYh4bfDe-4" value="Virtual&lt;br/&gt;Channel&lt;br/&gt;Multiplexing" style="rounded=0;whiteSpace=wrap;html=1;fillColor=#fff2cc;strokeColor=#000000;" vertex="1" parent="1">
                    <mxGeometry x="-190" y="520" width="760" height="80" as="geometry"/>
                </mxCell>
                <mxCell id="gddAYdEbdGSGUYh4bfDe-6" value="" style="shape=flexArrow;endArrow=classic;html=1;entryX=0.5;entryY=0;entryDx=0;entryDy=0;" edge="1" parent="1">
                    <mxGeometry width="50" height="50" relative="1" as="geometry">
                        <mxPoint x="410" y="600" as="sourcePoint"/>
                        <mxPoint x="410.0000000000001" y="670" as="targetPoint"/>
                    </mxGeometry>
                </mxCell>
                <mxCell id="gddAYdEbdGSGUYh4bfDe-8" value="request&lt;br&gt;frame&lt;br&gt;VC7" style="rounded=0;whiteSpace=wrap;html=1;fillColor=#dae8fc;strokeColor=#000000;" vertex="1" parent="1">
                    <mxGeometry x="-120" y="390" width="160" height="60" as="geometry"/>
                </mxCell>
                <mxCell id="gddAYdEbdGSGUYh4bfDe-14" value="&lt;font style=&quot;font-size: 14px;&quot;&gt;class&lt;br&gt;CcsdsTmMcSend&lt;/font&gt;" style="rounded=0;whiteSpace=wrap;html=1;fillColor=default;" vertex="1" parent="1">
                    <mxGeometry x="-260" y="770" width="120" height="60" as="geometry"/>
                </mxCell>
                <mxCell id="gddAYdEbdGSGUYh4bfDe-15" value="multiplexing&lt;br&gt;logic" style="rounded=0;whiteSpace=wrap;html=1;" vertex="1" parent="1">
                    <mxGeometry x="-170" y="540" width="80" height="40" as="geometry"/>
                </mxCell>
                <mxCell id="gddAYdEbdGSGUYh4bfDe-18" value="MC frames [frame]" style="rounded=0;whiteSpace=wrap;html=1;strokeColor=#000000;fillColor=default;" vertex="1" parent="1">
                    <mxGeometry x="420" y="610" width="120" height="30" as="geometry"/>
                </mxCell>
                <mxCell id="gddAYdEbdGSGUYh4bfDe-21" value="Interface" style="rounded=0;whiteSpace=wrap;html=1;fillColor=#dae8fc;strokeColor=#000000;" vertex="1" parent="1">
                    <mxGeometry x="650" y="850" width="120" height="40" as="geometry"/>
                </mxCell>
                <mxCell id="gddAYdEbdGSGUYh4bfDe-22" value="SDLP functions" style="rounded=0;whiteSpace=wrap;html=1;fillColor=#fff2cc;strokeColor=#000000;" vertex="1" parent="1">
                    <mxGeometry x="650" y="910" width="120" height="40" as="geometry"/>
                </mxCell>
                <mxCell id="lhjE1rx71gh7iTyU4ZG2-1" value="VC frames [frame]" style="rounded=0;whiteSpace=wrap;html=1;strokeColor=#000000;fillColor=default;" vertex="1" parent="1">
                    <mxGeometry x="-30" y="460" width="120" height="30" as="geometry"/>
                </mxCell>
                <mxCell id="lhjE1rx71gh7iTyU4ZG2-2" value="" style="shape=flexArrow;endArrow=classic;html=1;entryX=0.5;entryY=0;entryDx=0;entryDy=0;" edge="1" parent="1">
                    <mxGeometry width="50" height="50" relative="1" as="geometry">
                        <mxPoint x="440" y="450" as="sourcePoint"/>
                        <mxPoint x="440" y="520" as="targetPoint"/>
                    </mxGeometry>
                </mxCell>
                <mxCell id="lhjE1rx71gh7iTyU4ZG2-3" value="request&lt;br&gt;frame&lt;br&gt;VC0" style="rounded=0;whiteSpace=wrap;html=1;fillColor=#dae8fc;strokeColor=#000000;" vertex="1" parent="1">
                    <mxGeometry x="360" y="390" width="160" height="60" as="geometry"/>
                </mxCell>
                <mxCell id="lhjE1rx71gh7iTyU4ZG2-4" value="VC frames [frame]" style="rounded=0;whiteSpace=wrap;html=1;strokeColor=#000000;fillColor=default;" vertex="1" parent="1">
                    <mxGeometry x="450" y="460" width="120" height="30" as="geometry"/>
                </mxCell>
                <mxCell id="0h54ojbTQFqpeIHQ07Yx-1" value="MC_FSH service" style="rounded=0;whiteSpace=wrap;html=1;fillColor=#dae8fc;strokeColor=#000000;" vertex="1" parent="1">
                    <mxGeometry x="740" y="390" width="160" height="60" as="geometry"/>
                </mxCell>
                <mxCell id="0h54ojbTQFqpeIHQ07Yx-2" value="" style="shape=flexArrow;endArrow=classic;html=1;exitX=0.5;exitY=1;exitDx=0;exitDy=0;fontStyle=4;entryX=0.915;entryY=0.59;entryDx=0;entryDy=0;entryPerimeter=0;" edge="1" parent="1" source="0h54ojbTQFqpeIHQ07Yx-1" target="gddAYdEbdGSGUYh4bfDe-1">
                    <mxGeometry width="50" height="50" relative="1" as="geometry">
                        <mxPoint x="450" y="459.9999999999998" as="sourcePoint"/>
                        <mxPoint x="680" y="670" as="targetPoint"/>
                        <Array as="points"/>
                    </mxGeometry>
                </mxCell>
                <mxCell id="vtf4cM3djB3CSQXeLiiT-44" style="edgeStyle=none;html=1;fontSize=14;exitX=0.144;exitY=0.024;exitDx=0;exitDy=0;exitPerimeter=0;entryX=0.736;entryY=1.017;entryDx=0;entryDy=0;entryPerimeter=0;" edge="1" parent="1" source="0h54ojbTQFqpeIHQ07Yx-3" target="gddAYdEbdGSGUYh4bfDe-4">
                    <mxGeometry relative="1" as="geometry"/>
                </mxCell>
                <mxCell id="0h54ojbTQFqpeIHQ07Yx-3" value="Master&lt;br/&gt;Channel&lt;br/&gt;Generation" style="rounded=0;whiteSpace=wrap;html=1;fillColor=#fff2cc;strokeColor=#000000;" vertex="1" parent="1">
                    <mxGeometry x="280" y="670" width="620" height="80" as="geometry"/>
                </mxCell>
                <mxCell id="vtf4cM3djB3CSQXeLiiT-43" style="edgeStyle=none;html=1;entryX=0.143;entryY=1.032;entryDx=0;entryDy=0;entryPerimeter=0;fontSize=14;exitX=0.25;exitY=0;exitDx=0;exitDy=0;" edge="1" parent="1" source="xVO6UaH1v2z7q87tYatI-1" target="0h54ojbTQFqpeIHQ07Yx-3">
                    <mxGeometry relative="1" as="geometry"/>
                </mxCell>
                <mxCell id="xVO6UaH1v2z7q87tYatI-1" value="get_VC_frame" style="rounded=0;whiteSpace=wrap;html=1;fillColor=#dae8fc;strokeColor=#000000;" vertex="1" parent="1">
                    <mxGeometry x="330" y="820" width="160" height="50" as="geometry"/>
                </mxCell>
                <mxCell id="xVO6UaH1v2z7q87tYatI-2" value="" style="shape=flexArrow;endArrow=classic;html=1;entryX=0.5;entryY=0;entryDx=0;entryDy=0;" edge="1" parent="1">
                    <mxGeometry width="50" height="50" relative="1" as="geometry">
                        <mxPoint x="410" y="750" as="sourcePoint"/>
                        <mxPoint x="410" y="820" as="targetPoint"/>
                    </mxGeometry>
                </mxCell>
                <mxCell id="xVO6UaH1v2z7q87tYatI-3" value="MC frames [frame]" style="rounded=0;whiteSpace=wrap;html=1;strokeColor=#000000;fillColor=default;" vertex="1" parent="1">
                    <mxGeometry x="420" y="760" width="120" height="30" as="geometry"/>
                </mxCell>
                <mxCell id="vtf4cM3djB3CSQXeLiiT-1" value="" style="rounded=0;whiteSpace=wrap;html=1;fillColor=default;" vertex="1" parent="1">
                    <mxGeometry x="220" y="-160" width="440" height="520" as="geometry"/>
                </mxCell>
                <mxCell id="vtf4cM3djB3CSQXeLiiT-2" value="Packet&lt;br/&gt;Processing" style="rounded=0;whiteSpace=wrap;html=1;fillColor=#fff2cc;strokeColor=#000000;" vertex="1" parent="1">
                    <mxGeometry x="240" y="-80" width="160" height="80" as="geometry"/>
                </mxCell>
                <mxCell id="vtf4cM3djB3CSQXeLiiT-3" value="" style="shape=flexArrow;endArrow=classic;html=1;entryX=0.5;entryY=0;entryDx=0;entryDy=0;" edge="1" parent="1" target="vtf4cM3djB3CSQXeLiiT-2">
                    <mxGeometry width="50" height="50" relative="1" as="geometry">
                        <mxPoint x="320" y="-150" as="sourcePoint"/>
                        <mxPoint x="440" y="-80" as="targetPoint"/>
                    </mxGeometry>
                </mxCell>
                <mxCell id="vtf4cM3djB3CSQXeLiiT-4" value="Virtual Channel Generation" style="rounded=0;whiteSpace=wrap;html=1;fillColor=#fff2cc;strokeColor=#000000;" vertex="1" parent="1">
                    <mxGeometry x="240" y="80" width="400" height="80" as="geometry"/>
                </mxCell>
                <mxCell id="vtf4cM3djB3CSQXeLiiT-5" value="" style="shape=flexArrow;endArrow=classic;html=1;" edge="1" parent="1">
                    <mxGeometry width="50" height="50" relative="1" as="geometry">
                        <mxPoint x="320" as="sourcePoint"/>
                        <mxPoint x="320" y="80" as="targetPoint"/>
                    </mxGeometry>
                </mxCell>
                <mxCell id="vtf4cM3djB3CSQXeLiiT-6" value="" style="shape=flexArrow;endArrow=classic;html=1;entryX=0.5;entryY=0;entryDx=0;entryDy=0;" edge="1" parent="1" target="vtf4cM3djB3CSQXeLiiT-7">
                    <mxGeometry width="50" height="50" relative="1" as="geometry">
                        <mxPoint x="480" y="160" as="sourcePoint"/>
                        <mxPoint x="460" y="240" as="targetPoint"/>
                    </mxGeometry>
                </mxCell>
                <mxCell id="vtf4cM3djB3CSQXeLiiT-7" value="frames&lt;br&gt;FIFO" style="rounded=0;whiteSpace=wrap;html=1;" vertex="1" parent="1">
                    <mxGeometry x="440" y="230" width="80" height="40" as="geometry"/>
                </mxCell>
                <mxCell id="vtf4cM3djB3CSQXeLiiT-8" value="VCP service" style="rounded=0;whiteSpace=wrap;html=1;fillColor=#dae8fc;strokeColor=#000000;" vertex="1" parent="1">
                    <mxGeometry x="240" y="-210" width="160" height="60" as="geometry"/>
                </mxCell>
                <mxCell id="vtf4cM3djB3CSQXeLiiT-9" value="VC_FSH service" style="rounded=0;whiteSpace=wrap;html=1;fillColor=#dae8fc;strokeColor=#000000;" vertex="1" parent="1">
                    <mxGeometry x="480" y="-210" width="160" height="60" as="geometry"/>
                </mxCell>
                <mxCell id="vtf4cM3djB3CSQXeLiiT-10" value="" style="shape=flexArrow;endArrow=classic;html=1;entryX=0.8;entryY=0;entryDx=0;entryDy=0;exitX=0.5;exitY=1;exitDx=0;exitDy=0;entryPerimeter=0;" edge="1" parent="1" source="vtf4cM3djB3CSQXeLiiT-9" target="vtf4cM3djB3CSQXeLiiT-4">
                    <mxGeometry width="50" height="50" relative="1" as="geometry">
                        <mxPoint x="330" y="-140.00000000000023" as="sourcePoint"/>
                        <mxPoint x="330" y="-70.00000000000023" as="targetPoint"/>
                    </mxGeometry>
                </mxCell>
                <mxCell id="vtf4cM3djB3CSQXeLiiT-11" value="request&lt;br&gt;signal" style="edgeStyle=none;html=1;exitX=0.25;exitY=0;exitDx=0;exitDy=0;" edge="1" parent="1" source="vtf4cM3djB3CSQXeLiiT-12">
                    <mxGeometry relative="1" as="geometry">
                        <mxPoint x="400" y="160" as="targetPoint"/>
                    </mxGeometry>
                </mxCell>
                <mxCell id="vtf4cM3djB3CSQXeLiiT-12" value="get_VC_frame" style="rounded=0;whiteSpace=wrap;html=1;fillColor=#dae8fc;strokeColor=#000000;" vertex="1" parent="1">
                    <mxGeometry x="360" y="340" width="160" height="50" as="geometry"/>
                </mxCell>
                <mxCell id="vtf4cM3djB3CSQXeLiiT-13" value="" style="shape=flexArrow;endArrow=classic;html=1;exitX=0.5;exitY=1;exitDx=0;exitDy=0;entryX=0.75;entryY=0;entryDx=0;entryDy=0;" edge="1" parent="1" source="vtf4cM3djB3CSQXeLiiT-7" target="vtf4cM3djB3CSQXeLiiT-12">
                    <mxGeometry width="50" height="50" relative="1" as="geometry">
                        <mxPoint x="450" y="170" as="sourcePoint"/>
                        <mxPoint x="450" y="250" as="targetPoint"/>
                    </mxGeometry>
                </mxCell>
                <mxCell id="vtf4cM3djB3CSQXeLiiT-14" value="&lt;font style=&quot;font-size: 14px;&quot;&gt;class&lt;br&gt;CcsdsTmVcSend&lt;/font&gt;" style="rounded=0;whiteSpace=wrap;html=1;fillColor=default;" vertex="1" parent="1">
                    <mxGeometry x="220" y="300" width="120" height="60" as="geometry"/>
                </mxCell>
                <mxCell id="vtf4cM3djB3CSQXeLiiT-15" value="frame&lt;br&gt;buffer" style="rounded=0;whiteSpace=wrap;html=1;" vertex="1" parent="1">
                    <mxGeometry x="250" y="100" width="80" height="40" as="geometry"/>
                </mxCell>
                <mxCell id="vtf4cM3djB3CSQXeLiiT-16" value="packets [data, size]" style="rounded=0;whiteSpace=wrap;html=1;strokeColor=#000000;fillColor=default;" vertex="1" parent="1">
                    <mxGeometry x="330" y="-140" width="120" height="30" as="geometry"/>
                </mxCell>
                <mxCell id="vtf4cM3djB3CSQXeLiiT-17" value="data fields [data, size]" style="rounded=0;whiteSpace=wrap;html=1;strokeColor=#000000;fillColor=default;" vertex="1" parent="1">
                    <mxGeometry x="330" y="10" width="120" height="30" as="geometry"/>
                </mxCell>
                <mxCell id="vtf4cM3djB3CSQXeLiiT-18" value="VC frames [frame]" style="rounded=0;whiteSpace=wrap;html=1;strokeColor=#000000;fillColor=default;" vertex="1" parent="1">
                    <mxGeometry x="490" y="170" width="120" height="30" as="geometry"/>
                </mxCell>
                <mxCell id="vtf4cM3djB3CSQXeLiiT-19" value="VC frames [frame]" style="rounded=0;whiteSpace=wrap;html=1;strokeColor=#000000;fillColor=default;" vertex="1" parent="1">
                    <mxGeometry x="490" y="280" width="120" height="30" as="geometry"/>
                </mxCell>
                <mxCell id="vtf4cM3djB3CSQXeLiiT-20" value="SDLS" style="rounded=0;whiteSpace=wrap;html=1;" vertex="1" parent="1">
                    <mxGeometry x="550" y="100" width="80" height="40" as="geometry"/>
                </mxCell>
                <mxCell id="vtf4cM3djB3CSQXeLiiT-21" value="" style="rounded=0;whiteSpace=wrap;html=1;fillColor=default;" vertex="1" parent="1">
                    <mxGeometry x="-260" y="-160" width="440" height="520" as="geometry"/>
                </mxCell>
                <mxCell id="vtf4cM3djB3CSQXeLiiT-42" style="edgeStyle=none;html=1;fontSize=14;exitX=0.25;exitY=1;exitDx=0;exitDy=0;entryX=0.1;entryY=0.005;entryDx=0;entryDy=0;entryPerimeter=0;" edge="1" parent="1" source="vtf4cM3djB3CSQXeLiiT-22" target="vtf4cM3djB3CSQXeLiiT-24">
                    <mxGeometry relative="1" as="geometry">
                        <mxPoint x="-200" y="70" as="targetPoint"/>
                    </mxGeometry>
                </mxCell>
                <mxCell id="vtf4cM3djB3CSQXeLiiT-22" value="Packet&lt;br/&gt;Processing" style="rounded=0;whiteSpace=wrap;html=1;fillColor=#fff2cc;strokeColor=#000000;" vertex="1" parent="1">
                    <mxGeometry x="-240" y="-80" width="160" height="80" as="geometry"/>
                </mxCell>
                <mxCell id="vtf4cM3djB3CSQXeLiiT-23" value="" style="shape=flexArrow;endArrow=classic;html=1;entryX=0.5;entryY=0;entryDx=0;entryDy=0;" edge="1" parent="1" target="vtf4cM3djB3CSQXeLiiT-22">
                    <mxGeometry width="50" height="50" relative="1" as="geometry">
                        <mxPoint x="-160" y="-150" as="sourcePoint"/>
                        <mxPoint x="-40" y="-80" as="targetPoint"/>
                    </mxGeometry>
                </mxCell>
                <mxCell id="vtf4cM3djB3CSQXeLiiT-24" value="Virtual Channel Generation" style="rounded=0;whiteSpace=wrap;html=1;fillColor=#fff2cc;strokeColor=#000000;" vertex="1" parent="1">
                    <mxGeometry x="-240" y="80" width="400" height="80" as="geometry"/>
                </mxCell>
                <mxCell id="vtf4cM3djB3CSQXeLiiT-25" value="" style="shape=flexArrow;endArrow=classic;html=1;" edge="1" parent="1">
                    <mxGeometry width="50" height="50" relative="1" as="geometry">
                        <mxPoint x="-160" as="sourcePoint"/>
                        <mxPoint x="-160" y="80" as="targetPoint"/>
                    </mxGeometry>
                </mxCell>
                <mxCell id="vtf4cM3djB3CSQXeLiiT-26" value="" style="shape=flexArrow;endArrow=classic;html=1;entryX=0.5;entryY=0;entryDx=0;entryDy=0;" edge="1" parent="1" target="vtf4cM3djB3CSQXeLiiT-27">
                    <mxGeometry width="50" height="50" relative="1" as="geometry">
                        <mxPoint y="160" as="sourcePoint"/>
                        <mxPoint x="-20" y="240" as="targetPoint"/>
                    </mxGeometry>
                </mxCell>
                <mxCell id="vtf4cM3djB3CSQXeLiiT-27" value="frames&lt;br&gt;FIFO" style="rounded=0;whiteSpace=wrap;html=1;" vertex="1" parent="1">
                    <mxGeometry x="-40" y="230" width="80" height="40" as="geometry"/>
                </mxCell>
                <mxCell id="vtf4cM3djB3CSQXeLiiT-41" style="edgeStyle=none;html=1;entryX=0.25;entryY=0;entryDx=0;entryDy=0;fontSize=14;exitX=0.25;exitY=1;exitDx=0;exitDy=0;" edge="1" parent="1" source="vtf4cM3djB3CSQXeLiiT-28" target="vtf4cM3djB3CSQXeLiiT-22">
                    <mxGeometry relative="1" as="geometry"/>
                </mxCell>
                <mxCell id="vtf4cM3djB3CSQXeLiiT-28" value="VCP service" style="rounded=0;whiteSpace=wrap;html=1;fillColor=#dae8fc;strokeColor=#000000;" vertex="1" parent="1">
                    <mxGeometry x="-240" y="-210" width="160" height="60" as="geometry"/>
                </mxCell>
                <mxCell id="vtf4cM3djB3CSQXeLiiT-29" value="VC_FSH service" style="rounded=0;whiteSpace=wrap;html=1;fillColor=#dae8fc;strokeColor=#000000;" vertex="1" parent="1">
                    <mxGeometry y="-210" width="160" height="60" as="geometry"/>
                </mxCell>
                <mxCell id="vtf4cM3djB3CSQXeLiiT-30" value="" style="shape=flexArrow;endArrow=classic;html=1;entryX=0.8;entryY=0;entryDx=0;entryDy=0;exitX=0.5;exitY=1;exitDx=0;exitDy=0;entryPerimeter=0;" edge="1" parent="1" source="vtf4cM3djB3CSQXeLiiT-29" target="vtf4cM3djB3CSQXeLiiT-24">
                    <mxGeometry width="50" height="50" relative="1" as="geometry">
                        <mxPoint x="-150" y="-140.00000000000023" as="sourcePoint"/>
                        <mxPoint x="-150" y="-70.00000000000023" as="targetPoint"/>
                    </mxGeometry>
                </mxCell>
                <mxCell id="vtf4cM3djB3CSQXeLiiT-31" value="request&lt;br&gt;signal" style="edgeStyle=none;html=1;exitX=0.25;exitY=0;exitDx=0;exitDy=0;" edge="1" parent="1" source="vtf4cM3djB3CSQXeLiiT-32">
                    <mxGeometry relative="1" as="geometry">
                        <mxPoint x="-80" y="160" as="targetPoint"/>
                    </mxGeometry>
                </mxCell>
                <mxCell id="vtf4cM3djB3CSQXeLiiT-32" value="get_VC_frame" style="rounded=0;whiteSpace=wrap;html=1;fillColor=#dae8fc;strokeColor=#000000;" vertex="1" parent="1">
                    <mxGeometry x="-120" y="340" width="160" height="50" as="geometry"/>
                </mxCell>
                <mxCell id="vtf4cM3djB3CSQXeLiiT-33" value="" style="shape=flexArrow;endArrow=classic;html=1;exitX=0.5;exitY=1;exitDx=0;exitDy=0;entryX=0.75;entryY=0;entryDx=0;entryDy=0;" edge="1" parent="1" source="vtf4cM3djB3CSQXeLiiT-27" target="vtf4cM3djB3CSQXeLiiT-32">
                    <mxGeometry width="50" height="50" relative="1" as="geometry">
                        <mxPoint x="-30" y="170" as="sourcePoint"/>
                        <mxPoint x="-30" y="250" as="targetPoint"/>
                    </mxGeometry>
                </mxCell>
                <mxCell id="vtf4cM3djB3CSQXeLiiT-34" value="&lt;font style=&quot;font-size: 14px;&quot;&gt;class&lt;br&gt;CcsdsTmVcSend&lt;/font&gt;" style="rounded=0;whiteSpace=wrap;html=1;fillColor=default;" vertex="1" parent="1">
                    <mxGeometry x="-260" y="300" width="120" height="60" as="geometry"/>
                </mxCell>
                <mxCell id="vtf4cM3djB3CSQXeLiiT-35" value="frame&lt;br&gt;buffer" style="rounded=0;whiteSpace=wrap;html=1;" vertex="1" parent="1">
                    <mxGeometry x="-230" y="100" width="80" height="40" as="geometry"/>
                </mxCell>
                <mxCell id="vtf4cM3djB3CSQXeLiiT-36" value="packets [data, size]" style="rounded=0;whiteSpace=wrap;html=1;strokeColor=#000000;fillColor=default;" vertex="1" parent="1">
                    <mxGeometry x="-150" y="-140" width="120" height="30" as="geometry"/>
                </mxCell>
                <mxCell id="vtf4cM3djB3CSQXeLiiT-37" value="data fields [data, size]" style="rounded=0;whiteSpace=wrap;html=1;strokeColor=#000000;fillColor=default;" vertex="1" parent="1">
                    <mxGeometry x="-150" y="10" width="120" height="30" as="geometry"/>
                </mxCell>
                <mxCell id="vtf4cM3djB3CSQXeLiiT-38" value="VC frames [frame]" style="rounded=0;whiteSpace=wrap;html=1;strokeColor=#000000;fillColor=default;" vertex="1" parent="1">
                    <mxGeometry x="10" y="170" width="120" height="30" as="geometry"/>
                </mxCell>
                <mxCell id="vtf4cM3djB3CSQXeLiiT-39" value="VC frames [frame]" style="rounded=0;whiteSpace=wrap;html=1;strokeColor=#000000;fillColor=default;" vertex="1" parent="1">
                    <mxGeometry x="10" y="280" width="120" height="30" as="geometry"/>
                </mxCell>
                <mxCell id="vtf4cM3djB3CSQXeLiiT-40" value="SDLS" style="rounded=0;whiteSpace=wrap;html=1;" vertex="1" parent="1">
                    <mxGeometry x="70" y="100" width="80" height="40" as="geometry"/>
                </mxCell>
            </root>
        </mxGraphModel>
    </diagram>
    <diagram id="OC_ezcrFi7vJXvILyqpE" name="Common">
        <mxGraphModel dx="2933" dy="1430" grid="1" gridSize="10" guides="1" tooltips="1" connect="1" arrows="1" fold="1" page="1" pageScale="1" pageWidth="850" pageHeight="1100" math="0" shadow="0">
            <root>
                <mxCell id="0"/>
                <mxCell id="1" parent="0"/>
                <mxCell id="I0tdxXTSv2Fpjn3cUt_n-1" value="" style="rounded=0;whiteSpace=wrap;html=1;fillColor=default;" vertex="1" parent="1">
                    <mxGeometry x="120" y="410" width="740" height="390" as="geometry"/>
                </mxCell>
                <mxCell id="I0tdxXTSv2Fpjn3cUt_n-2" value="" style="shape=flexArrow;endArrow=classic;html=1;entryX=0.5;entryY=0;entryDx=0;entryDy=0;" edge="1" parent="1">
                    <mxGeometry width="50" height="50" relative="1" as="geometry">
                        <mxPoint x="220" y="420.0000000000002" as="sourcePoint"/>
                        <mxPoint x="220" y="489.9999999999998" as="targetPoint"/>
                    </mxGeometry>
                </mxCell>
                <mxCell id="I0tdxXTSv2Fpjn3cUt_n-3" value="Virtual&lt;br/&gt;Channel&lt;br/&gt;Multiplexing" style="rounded=0;whiteSpace=wrap;html=1;fillColor=#fff2cc;strokeColor=#000000;" vertex="1" parent="1">
                    <mxGeometry x="140" y="490" width="510" height="80" as="geometry"/>
                </mxCell>
                <mxCell id="I0tdxXTSv2Fpjn3cUt_n-4" value="" style="shape=flexArrow;endArrow=classic;html=1;entryX=0.5;entryY=0;entryDx=0;entryDy=0;" edge="1" parent="1">
                    <mxGeometry width="50" height="50" relative="1" as="geometry">
                        <mxPoint x="400" y="569.9999999999998" as="sourcePoint"/>
                        <mxPoint x="400" y="639.9999999999998" as="targetPoint"/>
                    </mxGeometry>
                </mxCell>
                <mxCell id="I0tdxXTSv2Fpjn3cUt_n-5" value="request&lt;br&gt;frame&lt;br&gt;VC7" style="rounded=0;whiteSpace=wrap;html=1;fillColor=#dae8fc;strokeColor=#000000;" vertex="1" parent="1">
                    <mxGeometry x="140" y="360" width="160" height="60" as="geometry"/>
                </mxCell>
                <mxCell id="I0tdxXTSv2Fpjn3cUt_n-6" value="&lt;font style=&quot;font-size: 14px;&quot;&gt;class&lt;br&gt;CcsdsTmMcSend&lt;/font&gt;" style="rounded=0;whiteSpace=wrap;html=1;fillColor=default;" vertex="1" parent="1">
                    <mxGeometry x="120" y="740" width="120" height="60" as="geometry"/>
                </mxCell>
                <mxCell id="I0tdxXTSv2Fpjn3cUt_n-7" value="multiplexing&lt;br&gt;logic" style="rounded=0;whiteSpace=wrap;html=1;" vertex="1" parent="1">
                    <mxGeometry x="150" y="510" width="80" height="40" as="geometry"/>
                </mxCell>
                <mxCell id="I0tdxXTSv2Fpjn3cUt_n-8" value="MC frames [frame]" style="rounded=0;whiteSpace=wrap;html=1;strokeColor=#000000;fillColor=default;" vertex="1" parent="1">
                    <mxGeometry x="410" y="580" width="120" height="30" as="geometry"/>
                </mxCell>
                <mxCell id="I0tdxXTSv2Fpjn3cUt_n-9" value="Interface" style="rounded=0;whiteSpace=wrap;html=1;fillColor=#dae8fc;strokeColor=#000000;" vertex="1" parent="1">
                    <mxGeometry x="730" y="820" width="120" height="40" as="geometry"/>
                </mxCell>
                <mxCell id="I0tdxXTSv2Fpjn3cUt_n-10" value="SDLP functions" style="rounded=0;whiteSpace=wrap;html=1;fillColor=#fff2cc;strokeColor=#000000;" vertex="1" parent="1">
                    <mxGeometry x="730" y="880" width="120" height="40" as="geometry"/>
                </mxCell>
                <mxCell id="I0tdxXTSv2Fpjn3cUt_n-11" value="VC frames [frame]" style="rounded=0;whiteSpace=wrap;html=1;strokeColor=#000000;fillColor=default;" vertex="1" parent="1">
                    <mxGeometry x="230" y="430" width="120" height="30" as="geometry"/>
                </mxCell>
                <mxCell id="I0tdxXTSv2Fpjn3cUt_n-12" value="" style="shape=flexArrow;endArrow=classic;html=1;entryX=0.5;entryY=0;entryDx=0;entryDy=0;" edge="1" parent="1">
                    <mxGeometry width="50" height="50" relative="1" as="geometry">
                        <mxPoint x="520" y="420.0000000000002" as="sourcePoint"/>
                        <mxPoint x="520" y="489.9999999999998" as="targetPoint"/>
                    </mxGeometry>
                </mxCell>
                <mxCell id="I0tdxXTSv2Fpjn3cUt_n-13" value="request&lt;br&gt;frame&lt;br&gt;VC0" style="rounded=0;whiteSpace=wrap;html=1;fillColor=#dae8fc;strokeColor=#000000;" vertex="1" parent="1">
                    <mxGeometry x="440" y="360" width="160" height="60" as="geometry"/>
                </mxCell>
                <mxCell id="I0tdxXTSv2Fpjn3cUt_n-14" value="VC frames [frame]" style="rounded=0;whiteSpace=wrap;html=1;strokeColor=#000000;fillColor=default;" vertex="1" parent="1">
                    <mxGeometry x="530" y="430" width="120" height="30" as="geometry"/>
                </mxCell>
                <mxCell id="I0tdxXTSv2Fpjn3cUt_n-15" value="MC_FSH service" style="rounded=0;whiteSpace=wrap;html=1;fillColor=#dae8fc;strokeColor=#000000;" vertex="1" parent="1">
                    <mxGeometry x="680" y="360" width="160" height="60" as="geometry"/>
                </mxCell>
                <mxCell id="I0tdxXTSv2Fpjn3cUt_n-16" value="" style="shape=flexArrow;endArrow=classic;html=1;exitX=0.5;exitY=1;exitDx=0;exitDy=0;fontStyle=4" edge="1" parent="1" source="I0tdxXTSv2Fpjn3cUt_n-15">
                    <mxGeometry width="50" height="50" relative="1" as="geometry">
                        <mxPoint x="530" y="429.9999999999998" as="sourcePoint"/>
                        <mxPoint x="760.0000000000002" y="639.9999999999998" as="targetPoint"/>
                        <Array as="points">
                            <mxPoint x="760" y="580"/>
                        </Array>
                    </mxGeometry>
                </mxCell>
                <mxCell id="I0tdxXTSv2Fpjn3cUt_n-17" value="Master&lt;br/&gt;Channel&lt;br/&gt;Generation" style="rounded=0;whiteSpace=wrap;html=1;fillColor=#fff2cc;strokeColor=#000000;" vertex="1" parent="1">
                    <mxGeometry x="140" y="640" width="700" height="80" as="geometry"/>
                </mxCell>
                <mxCell id="I0tdxXTSv2Fpjn3cUt_n-18" value="get_VC_frame" style="rounded=0;whiteSpace=wrap;html=1;fillColor=#dae8fc;strokeColor=#000000;" vertex="1" parent="1">
                    <mxGeometry x="410" y="790" width="160" height="50" as="geometry"/>
                </mxCell>
                <mxCell id="I0tdxXTSv2Fpjn3cUt_n-19" value="" style="shape=flexArrow;endArrow=classic;html=1;entryX=0.5;entryY=0;entryDx=0;entryDy=0;" edge="1" parent="1">
                    <mxGeometry width="50" height="50" relative="1" as="geometry">
                        <mxPoint x="490" y="719.9999999999998" as="sourcePoint"/>
                        <mxPoint x="490" y="789.9999999999998" as="targetPoint"/>
                    </mxGeometry>
                </mxCell>
                <mxCell id="I0tdxXTSv2Fpjn3cUt_n-20" value="MC frames [frame]" style="rounded=0;whiteSpace=wrap;html=1;strokeColor=#000000;fillColor=default;" vertex="1" parent="1">
                    <mxGeometry x="500" y="730" width="120" height="30" as="geometry"/>
                </mxCell>
            </root>
        </mxGraphModel>
    </diagram>
</mxfile>